<svg width="500" height="500" viewBox="0 0 500 500" fill="none" xmlns="http://www.w3.org/2000/svg">
<circle cx="250" cy="250" r="250" fill="#3758F9"/>
<path d="M293.406 75.6937C300.179 76.888 305.768 81.5834 307.945 87.9085L410.23 385.234C412.302 391.256 410.966 397.852 406.709 402.603C402.452 407.354 395.898 409.563 389.448 408.426L248.206 332.033L89.3541 355.512C82.9053 354.374 77.5051 350.056 75.1294 344.137C72.754 338.216 73.7509 331.561 77.7578 326.61L275.566 82.1993C279.774 76.9999 286.633 74.4996 293.406 75.6937Z" fill="#828181"/>
<path d="M278.406 67.6937C285.179 68.888 290.768 73.5834 292.945 79.9085L395.23 377.233C397.302 383.256 395.966 389.852 391.709 394.603C387.452 399.354 380.898 401.563 374.448 400.426L233.206 324.033L74.3541 347.512C67.9053 346.374 62.5051 342.056 60.1294 336.137C57.754 330.216 58.7509 323.561 62.7578 318.61L260.566 74.1993C264.774 68.9999 271.633 66.4996 278.406 67.6937Z" fill="white"/>
</svg>
